<svg version="1" xmlns="http://www.w3.org/2000/svg" width="682.667" height="682.667" viewBox="0 0 512.000000 512.000000"><path d="M256.7 68.6c-44 7.9-73.8 37.4-83.8 82.9-2.9 13.1-3.6 38.6-1.5 53.4 2.5 18 7.7 32.7 16 46 4.5 7 16.5 18.9 24.5 24.1 4.2 2.7 8.4 5.5 9.5 6.3 1.7 1.2-.2 5.6-31.9 72.2-18.5 39.1-33.9 71.6-34.2 72.3-.4 1 4.3 1.2 22.7 1l23.3-.3 31.1-67.2 31.1-67.3H296v135h40V67l-35.7.1c-26.2.1-37.9.5-43.6 1.5zM296 181.1v79.2l-16.7-.6c-24.7-.9-35.3-4.5-46.9-16.1-6.9-6.9-13.1-18.5-15.8-29.6-2.5-10.3-3.8-26.6-3.1-38 2.1-34.8 14-57.6 35.4-68 9.2-4.5 16.5-5.8 32.9-5.9l14.2-.1v79.1z"/></svg>