<svg version="1" xmlns="http://www.w3.org/2000/svg" width="432" height="432" viewBox="0 0 324.000000 324.000000"><path d="M96.7 34.2c-10.3 2.2-17 9.3-21.2 22.8-2.4 7.7-2.8 30.5-.8 42.5 2.7 15.5 3.2 14.2-7.2 17.9-38.2 13.8-57.6 35.9-48.8 55.6 2.6 5.8 11.1 15.1 18.4 20.1 7.8 5.3 21.7 12.1 31.6 15.6 9.1 3.1 9 2.9 7.3 11-1.7 8.7-2 11.7-2.4 22.8-.7 18.3 2.1 31 8.8 39.8 13.1 17.2 40.8 11.3 72.3-15.2 4-3.4 7.5-6.1 7.7-6.1.3 0 1.1.6 1.8 1.3.7.7 3.8 3.3 6.8 5.8 23.9 19.9 48 28.2 62.2 21.5 7.7-3.7 14.2-13.7 16.6-25.4 1.8-9.1.6-37.5-2-48-.6-2.3-.9-4.4-.7-4.6.2-.1 4-1.5 8.3-3 16.9-5.9 29.6-13.1 39.5-22.2 18-16.7 16.6-34.3-4-50.7-7.9-6.4-22.7-14.1-35.5-18.8l-9.2-3.2.9-3c.8-3 1.1-4.3 2.8-16.7.9-6.7.7-26.2-.4-31.5-1.9-9.3-5.2-16.6-9.7-21.4-14-15-42.6-7.2-73.8 20.1l-4.2 3.8-5.7-5.1C135.4 41.4 111.4 31 96.7 34.2zm132.1 14.6c7.9 5.2 10.9 27.4 6.8 51.2-.9 5.2-1.8 9.6-2 9.8-.2.2-6.2-.8-13.2-2.1-7.1-1.4-15.5-2.8-18.6-3.2l-5.7-.6-8.5-10.7c-4.7-5.9-10.1-12.4-12.1-14.6-1.9-2.1-3.5-4.1-3.5-4.5 0-1 10.9-9.7 19-15.3 16-11.1 30.4-14.9 37.8-10zm-107.6 3.5c8.8 4.3 19.1 11.3 27.2 18.5 4.2 3.7 4.3 3.5-3.7 12.2-2.6 2.8-7.4 8.6-10.8 13-3.4 4.4-6.5 8-6.8 8.1-7.3.7-11.3 1.3-20.1 2.9-5.8 1-11.9 2.2-13.6 2.6-3.4.7-3.3.8-4.9-7.5-2.6-13.8-2.6-34.2 0-42.2 3.6-10.8 6.6-13.1 16.7-12.6 5.4.3 8.4 1.3 16 5zm42.1 32.9c5.2 5.5 13.7 15.6 13.7 16.4 0 .5-6.8.9-15.5.9-8.5 0-15.5-.2-15.5-.4 0-.8 15-18.1 15.7-18.1.3 0 1 .6 1.6 1.2zm20.7 31.1c3.3.4 5 1.2 6.6 3.3 3.4 4.1 16.8 27 21 35.5l3.7 7.7-4.1 8.3c-4.3 8.8-19.4 34.6-21.5 36.6-1.6 1.5-10.9 2.3-27.2 2.3-22.3 0-26.6-.5-28.7-3.2-3.3-4.3-16.4-26.3-20.9-35.1l-4.4-8.7 5.5-10.7c8.1-15.8 19.8-34.3 22.3-35.2 1.2-.5 4.2-.9 6.6-.9 2.4-.1 4.5-.2 4.6-.4.5-.5 31.3 0 36.5.5zm-67 3.2c0 .2-1.7 3.3-3.8 6.7-2.1 3.5-5.5 9.4-7.7 13.3l-3.8 6.9-1.8-4c-2.7-6.6-6.3-18.3-5.7-18.9.3-.3 1.6-.8 2.9-1 1.3-.3 4.7-.9 7.4-1.5 8.6-1.7 9-1.8 10.8-1.9.9 0 1.7.1 1.7.4zm98.2.5c14.6 2.9 15 3.1 14.3 5.4-.3 1.1-.8 3-1 4.1-.3 1.1-1.7 5.3-3.3 9.3l-2.8 7.4-7.5-12.8c-4.1-7.1-7.5-13.2-7.7-13.6-.5-1.1 1.7-1 8 .2zM82.9 134.2c1.3 4 4.3 12.1 6.7 18.1l4.4 10.8-3.8 9.2c-2.1 5-5.1 13.1-6.6 17.9l-2.9 8.7-7.1-2.6C53 189 36.2 178.1 31.5 168.9c-3.4-6.5-1.8-11.7 5.8-19.2 6.2-6.3 17.9-13.2 30.2-18 9.8-3.8 11.7-4.5 12.6-4.6.3-.1 1.5 3.2 2.8 7.1zm169.6-4.1c24.3 8.5 42 22.6 41.7 33-.3 9.7-15.1 21.9-37.7 30.9-14.3 5.7-12.7 6.3-16.5-5.4-1.8-5.5-4.8-13.6-6.6-17.9l-3.3-7.7 4.8-12.5c2.7-6.8 5.7-14.9 6.5-17.9.9-3.1 1.8-5.6 2-5.6.3 0 4.4 1.4 9.1 3.1zm-26.1 59.8c2 5.8 3.5 11 3.2 11.7-.4 1-1.9 1.5-8.1 2.6-.5.1-3.7.7-7 1.4-8.4 1.9-9.2 1.8-7.2-.4 1-1 1.7-2.2 1.7-2.6 0-.4.8-2 1.9-3.4 1.8-2.6 6.2-10.4 9.5-17 1-1.9 1.9-3.2 2.1-3 .2.1 1.9 5 3.9 10.7zm-120.7-3.6c1.4 2.9 4.8 8.7 7.4 13l4.9 7.8-3.8-.7c-8-1.3-18.7-3.6-19.5-4.1-.9-.6-.6-2 3.5-13.5 1.7-4.8 3.4-8.5 3.9-8.2.5.3 2.1 2.9 3.6 5.7zm5.8 33.2c3.9.6 9.5 1.4 14.3 2 1.2.1 2.4.4 2.5.6 4 5.6 13.5 17.3 20 24.5 2 2.2 3.7 4.5 3.7 5-.1 1.2-14.1 12.4-20.5 16.5-2.7 1.8-8.4 4.8-12.5 6.8-6.4 3-8.6 3.5-14.7 3.6-6.6 0-7.4-.2-10.3-3-7-6.7-9.5-29.5-5.6-50 .3-1.7.9-4.6 1.2-6.6l.6-3.6 8.7 1.8c4.7.9 10.4 2 12.6 2.4zm122.6-3.3c0 .7.2 2 .4 2.8 2.9 12.6 4 30.3 2.4 40.4-1.3 7.8-4.3 14.6-7.7 17.1-4 2.9-12.8 2.6-21.7-1-7.7-3-23.1-13-31-19.9l-5-4.4 4.1-4.4c4.7-5 11.5-13.2 16.8-20.2 2.1-2.8 4.5-5.1 5.4-5.2 10.9-1.2 15.5-1.9 24.3-3.9 5.7-1.2 10.7-2.3 11.2-2.4.4 0 .7.5.8 1.1zm-56.1 7.5c0 .3-12.1 14.5-14.6 17-1.2 1.3-5.6-2.9-13.7-12.8l-3.7-4.6h16c8.8 0 16 .2 16 .4z"/><path d="M156.2 136.5c-20.5 4.7-28.2 29.6-13.8 44.9 5.5 5.8 11 8.1 19.6 8.1 8.6 0 13.6-2.1 19.4-8.1 4.6-4.7 6.7-9.4 7.3-16.4 1.7-18-14.8-32.4-32.5-28.5z"/></svg>